<?xml version="1.0" encoding="UTF-8" standalone="no"?>
<svg
   width="10pt"
   height="10pt"
   version="1.1"
   viewBox="0 0 10 10"
   id="svg2449"
   sodipodi:docname="github.svg"
   inkscape:version="1.2.2 (b0a8486541, 2022-12-01)"
   xmlns:inkscape="http://www.inkscape.org/namespaces/inkscape"
   xmlns:sodipodi="http://sodipodi.sourceforge.net/DTD/sodipodi-0.dtd"
   xmlns="http://www.w3.org/2000/svg"
   xmlns:svg="http://www.w3.org/2000/svg">
  <defs
     id="defs2453" />
  <sodipodi:namedview
     id="namedview2451"
     pagecolor="#ffffff"
     bordercolor="#000000"
     borderopacity="0.25"
     inkscape:showpageshadow="2"
     inkscape:pageopacity="0.0"
     inkscape:pagecheckerboard="0"
     inkscape:deskcolor="#d1d1d1"
     inkscape:document-units="mm"
     showgrid="false"
     inkscape:zoom="12.291667"
     inkscape:cx="9.8440676"
     inkscape:cy="9.5999999"
     inkscape:window-width="1803"
     inkscape:window-height="1133"
     inkscape:window-x="0"
     inkscape:window-y="0"
     inkscape:window-maximized="1"
     inkscape:current-layer="svg2449" />
  <g
     transform="matrix(1.9200345,0,0,1.9684748,-367.10291,-12.340861)"
     id="g2447">
    <path
       d="m 193.8,6.2693 c -1.4381,0 -2.604,1.166 -2.604,2.6044 0,1.1506 0.74614,2.1267 1.781,2.4712 0.1303,0.02382 0.17779,-0.0566 0.17779,-0.12566 0,-0.06171 -0.002,-0.22558 -0.004,-0.44285 -0.72438,0.15732 -0.87722,-0.34917 -0.87722,-0.34917 -0.11847,-0.30072 -0.28921,-0.38082 -0.28921,-0.38082 -0.23646,-0.16163 0.0179,-0.15844 0.0179,-0.15844 0.2614,0.01854 0.39889,0.26843 0.39889,0.26843 0.23228,0.39793 0.6096,0.28298 0.75797,0.21647 0.0237,-0.16835 0.0908,-0.28314 0.16531,-0.34821 -0.57827,-0.06571 -1.1863,-0.28921 -1.1863,-1.2872 0,-0.28426 0.10152,-0.51672 0.26811,-0.69881 -0.0269,-0.06587 -0.11623,-0.33062 0.0254,-0.68922 0,0 0.21871,-0.07002 0.71624,0.26699 0.20767,-0.05772 0.43054,-0.08665 0.65197,-0.08761 0.2211,9.59e-4 0.44395,0.0299 0.65197,0.08761 0.49721,-0.33702 0.71544,-0.26699 0.71544,-0.26699 0.14211,0.3586 0.0528,0.62335 0.0259,0.68922 0.16691,0.1821 0.2678,0.41456 0.2678,0.69881 0,1.0005 -0.60897,1.2206 -1.1892,1.2851 0.0935,0.08042 0.17682,0.23933 0.17682,0.48234 0,0.34805 -0.003,0.62895 -0.003,0.71432 0,0.06971 0.0468,0.15076 0.17906,0.12534 1.0341,-0.34517 1.7796,-1.3206 1.7796,-2.4709 1e-5,-1.4384 -1.1661,-2.6044 -2.6045,-2.6044"
       fill-rule="evenodd"
       id="path2445" />
  </g>
</svg>
