<?xml version="1.0" encoding="UTF-8" standalone="no"?>
<svg
   width="10pt"
   height="10pt"
   version="1.1"
   viewBox="0 0 10 10"
   id="svg4414"
   sodipodi:docname="reddit.svg"
   inkscape:version="1.2.2 (b0a8486541, 2022-12-01)"
   xmlns:inkscape="http://www.inkscape.org/namespaces/inkscape"
   xmlns:sodipodi="http://sodipodi.sourceforge.net/DTD/sodipodi-0.dtd"
   xmlns="http://www.w3.org/2000/svg"
   xmlns:svg="http://www.w3.org/2000/svg">
  <defs
     id="defs4418" />
  <sodipodi:namedview
     id="namedview4416"
     pagecolor="#ffffff"
     bordercolor="#000000"
     borderopacity="0.25"
     inkscape:showpageshadow="2"
     inkscape:pageopacity="0.0"
     inkscape:pagecheckerboard="0"
     inkscape:deskcolor="#d1d1d1"
     inkscape:document-units="mm"
     showgrid="false"
     inkscape:zoom="12.295781"
     inkscape:cx="9.5967874"
     inkscape:cy="9.5967874"
     inkscape:window-width="1803"
     inkscape:window-height="1133"
     inkscape:window-x="0"
     inkscape:window-y="0"
     inkscape:window-maximized="1"
     inkscape:current-layer="svg4414" />
  <g
     transform="matrix(1.9684548,0,0,1.9691233,-1778.6151,-252.71957)"
     id="g4412">
    <g
       transform="matrix(0.0014693,0,0,0.0014693,903.46,128.23)"
       id="g4410">
      <path
         class="st0"
         d="m 1756.6,76.102 c -919.1,20.8 -1683.5,766.63 -1689.2,1727.2 4.7,962 773.28,1719.2 1707.9,1728.6 980.9,9.9 1725.2,-771.74 1749,-1678.3 26.1,-994.5 -781.77,-1799.7 -1767.7,-1777.5 z m 305.28,384.77 c 144.7,30.9 289.5,61.502 434,93.202 17.9,3.9 28.094,0.63518 40.094,-13.365 122.7,-142.7 312.91,-77.698 374.21,31.302 0.065,0.11523 -0.064,0.23643 0,0.35171 76.261,136.34 -9.0938,306.53 -167.06,332.01 -115,18.5 -228.96,-54.419 -259.56,-168.82 -0.031,-0.11467 -0.3207,0.11394 -0.3517,0 -6.5,-24.2 -17.798,-31.877 -40.798,-36.577 -111.5,-22.7 -222.47,-47.496 -333.77,-71.396 -8.8,-1.9 -17.64,-3.1239 -28.84,-4.9239 -46.6,145 -92.579,288.71 -139.98,436.10999 28,2.8999 52.272,5.2375 76.672,7.7375 217.9,22.1 420.13,89.772 603.53,210.67 10.784,7.0654 17.813,5.647 27.785,-1.7585 0.6331,-0.4784 1.0971,0.5385 1.7585,0 98.9,-80.8 209.32,-95.215 324.62,-44.315 106.5,47.3 165.3,133.76 176.2,250.06 11.1,118.6 -44.51,206.43 -136.11,274.33 -22,16.3 -28.871,30.083 -24.971,58.383 28.7,212.2 -32.836,398.16 -172.34,558.16 -0.071,0.082 -0.2804,-0.082 -0.3517,0 -182.92,192.08 -446.64,321.04 -660.85,369.99 -178.3,40.3 -358.72,48.826 -540.22,26.026 -207.5,-26.1 -405.43,-83.3 -583.83,-195.9 -156.3,-98.6 -284.99,-223.47 -359.79,-396.37 -52.6,-121.6 -66.015,-248.14 -44.315,-378.44 2.2776,-13.864 -0.88156,-21.492 -13.365,-29.895 -0.0859,-0.058 0.0859,-0.2941 0,-0.3517 -77.514,-51.942 -133.84,-120.35 -148.42,-214.89 -0.0162,-0.1048 0.0161,-0.2468 0,-0.3517 -36.9,-240.9 177.28,-387.2 357.68,-339.4 52.1,13.8 100.33,42.166 149.83,65.066 0.0976,0.045 0.2541,-0.045 0.35171,0 12.1,5.6 20.212,9 33.41199,0 144.7,-98.7 303.7,-163.22 474.8,-199.42 95.4,-20.2 191.5,-33.76 289.1,-33.06 19.043,0.099 23.008,-10.517 27.433,-24.619 52,-165.59999 104.66,-331.35999 156.86,-496.95999 18.5,-58.8 46.467,-75.504 106.57,-62.604 z"
         id="path4408" />
    </g>
  </g>
</svg>
