<?xml version="1.0" encoding="UTF-8" standalone="no"?>
<svg
   width="10pt"
   height="10pt"
   version="1.1"
   viewBox="0 0 10 10"
   id="svg6003"
   sodipodi:docname="stackoverflow.svg"
   inkscape:version="1.2.2 (b0a8486541, 2022-12-01)"
   xmlns:inkscape="http://www.inkscape.org/namespaces/inkscape"
   xmlns:sodipodi="http://sodipodi.sourceforge.net/DTD/sodipodi-0.dtd"
   xmlns="http://www.w3.org/2000/svg"
   xmlns:svg="http://www.w3.org/2000/svg">
  <defs
     id="defs6007" />
  <sodipodi:namedview
     id="namedview6005"
     pagecolor="#ffffff"
     bordercolor="#000000"
     borderopacity="0.25"
     inkscape:showpageshadow="2"
     inkscape:pageopacity="0.0"
     inkscape:pagecheckerboard="0"
     inkscape:deskcolor="#d1d1d1"
     inkscape:document-units="in"
     showgrid="false"
     inkscape:zoom="12.291666"
     inkscape:cx="8.1355933"
     inkscape:cy="9.6000001"
     inkscape:window-width="1803"
     inkscape:window-height="1133"
     inkscape:window-x="0"
     inkscape:window-y="0"
     inkscape:window-maximized="1"
     inkscape:current-layer="svg6003" />
  <g
     transform="matrix(1.973787,0,0,1.9684875,-1815.752,-39.592236)"
     id="g6001">
    <g
       transform="matrix(0.058661,0,0,0.058661,918.99,19.239)"
       id="g5999">
      <path
         class="st0"
         d="M 84.4,93.8 V 70.6 h 7.7 v 30.9 H 22.6 V 70.6 h 7.7 v 23.2 z"
         id="path5995" />
      <path
         class="st1"
         d="m 38.8,68.4 37.8,7.9 1.6,-7.6 -37.8,-7.9 z m 5,-18 35,16.3 3.2,-7 L 47,43.3 Z M 53.5,33.2 83.2,57.9 88.1,52 58.4,27.3 Z m 19.2,-18.3 -6.2,4.6 23,31 6.2,-4.6 z M 38,86 H 76.6 V 78.3 H 38 Z"
         id="path5997" />
    </g>
  </g>
</svg>
